<svg xmlns="http://www.w3.org/2000/svg" viewBox="0 0 720 420" role="img" aria-labelledby="t d">
  <title id="t">The introduction has arrived</title>
  <desc id="d">A mature travel-collage arrival scene with a city postcard, a verified route and people gathered around the destination.</desc>
  <defs>
    <filter id="shadow" x="-30%" y="-30%" width="160%" height="160%"><feDropShadow dx="0" dy="5" stdDeviation="5" flood-color="#3d2d20" flood-opacity=".18"/></filter>
    <filter id="grain" x="-20%" y="-20%" width="140%" height="140%"><feTurbulence type="fractalNoise" baseFrequency=".62" numOctaves="2" seed="32" result="n"/><feColorMatrix in="n" type="saturate" values="0" result="m"/><feComponentTransfer in="m"><feFuncA type="table" tableValues="0 .1"/></feComponentTransfer><feBlend in="SourceGraphic" in2="m" mode="multiply"/></filter>
  </defs>
  <rect width="720" height="420" rx="18" fill="#173f36"/>
  <path d="M0 320c112-30 201-10 299-48 113-44 209-116 421-89v237H0Z" fill="#c5d2c1"/>
  <path d="M0 359c119-34 218-2 331-51 124-54 225-96 389-70v182H0Z" fill="#8caeb8" opacity=".76"/>
  <g filter="url(#shadow)">
    <path d="M52 44 412 30 423 274 67 291Z" fill="#fff7e9" stroke="#8a755f" stroke-width="2"/>
    <rect x="81" y="61" width="315" height="177" fill="#a8c5d1"/>
    <path d="M81 190c84-45 153-41 215-75 38-21 67-25 100-18v141H81Z" fill="#ccb67b"/>
    <g fill="#f1dfc5" stroke="#896e53" stroke-width="1.2">
      <path d="M97 207v-78h47v78Z"/><path d="M148 207v-108h58v108Z"/><path d="M210 207v-84h50v84Z"/><path d="M264 207v-122h61v122Z"/><path d="M329 207v-69h50v69Z"/>
    </g>
    <g fill="#a94f37"><path d="m92 129 29-21 30 21Z"/><path d="m143 99 34-25 36 25Z"/><path d="m205 123 30-22 31 22Z"/><path d="m259 85 35-27 38 27Z"/><path d="m324 138 29-20 30 20Z"/></g>
    <path d="M81 215c99-31 191-20 315-57v80H81Z" fill="#74959f"/>
    <text x="93" y="265" font-family="Bradley Hand,Segoe Print,cursive" font-size="19" fill="#4c4137" transform="rotate(-2 93 265)">The opportunity arrived. The people made it possible.</text>
  </g>
  <g transform="translate(500 42)" filter="url(#shadow)">
    <path d="M0 0 165 14 150 166-15 151Z" fill="#f0e2cc"/>
    <text x="17" y="40" font-family="Arial,sans-serif" font-size="10" font-weight="900" letter-spacing="1.2" fill="#a94f37">ARRIVED</text>
    <text x="17" y="72" font-family="Iowan Old Style,Georgia,serif" font-size="26" font-weight="700" fill="#183f36">One destination.</text>
    <text x="17" y="102" font-family="Iowan Old Style,Georgia,serif" font-size="26" font-weight="700" fill="#183f36">Reached.</text>
    <text x="17" y="132" font-family="Bradley Hand,Segoe Print,cursive" font-size="15" fill="#5a4b3e">Different people. One human route.</text>
  </g>
  <path d="M86 338c119-70 221-41 335-85 82-32 123-59 190-102" fill="none" stroke="#d96348" stroke-width="7" stroke-linecap="round" stroke-dasharray="12 14"/>
  <g transform="translate(90 296)"><circle cx="25" cy="20" r="16" fill="#b47c5d"/><path d="M5 73c3-34 10-45 20-45s18 11 22 45Z" fill="#6f4f72"/><path d="M10 72 7 102h12l7-28 7 28h12l-4-30Z" fill="#183f36"/></g>
  <g transform="translate(225 273)"><circle cx="25" cy="20" r="16" fill="#d0a17c"/><path d="M5 73c3-34 10-45 20-45s18 11 22 45Z" fill="#a95e47"/><path d="M10 72 7 102h12l7-28 7 28h12l-4-30Z" fill="#557d98"/></g>
  <g transform="translate(375 237)"><circle cx="25" cy="20" r="16" fill="#845841"/><path d="M5 73c3-34 10-45 20-45s18 11 22 45Z" fill="#49756e"/><path d="M10 72 7 102h12l7-28 7 28h12l-4-30Z" fill="#735a78"/></g>
  <g transform="translate(583 117)" filter="url(#shadow)"><path d="M0 36C0 16 16 0 36 0s36 16 36 36c0 26-36 66-36 66S0 62 0 36Z" fill="#a94f37"/><circle cx="36" cy="36" r="13" fill="#fff7e7"/><circle cx="36" cy="36" r="5" fill="#a94f37"/></g>
  <g transform="translate(554 225)"><circle cx="25" cy="20" r="16" fill="#86563f"/><path d="M5 73c3-34 10-45 20-45s18 11 22 45Z" fill="#d0b66e"/><path d="M10 72 7 102h12l7-28 7 28h12l-4-30Z" fill="#5b526c"/></g>
  <g transform="translate(467 319) rotate(-2)" filter="url(#shadow)"><rect width="206" height="52" rx="3" fill="#fff6e8" stroke="#7d6b57" stroke-width="1.8"/><text x="103" y="23" text-anchor="middle" font-family="Iowan Old Style,Georgia,serif" font-size="19" font-weight="700" fill="#183f36">THE INTRODUCTION ARRIVED</text><text x="103" y="41" text-anchor="middle" font-family="Arial,sans-serif" font-size="9" fill="#665b4e">Only independently FINAL handoffs are recorded</text></g>
  <rect width="720" height="420" rx="18" fill="transparent" filter="url(#grain)" opacity=".16"/>
</svg>
