<svg xmlns="http://www.w3.org/2000/svg" viewBox="0 0 640 260" role="img" aria-labelledby="t d">
  <title id="t">Two people passing the one NIM baton</title><desc id="d">Original paper-cut style hands meeting around a yellow one NIM custody baton.</desc>
  <rect width="640" height="260" rx="20" fill="#eadfcd"/>
  <path d="M0 40 188 82 151 199 0 169Z" fill="#5c705a"/><path d="m188 82 105 73-43 56-104-25Z" fill="#b87958"/>
  <path d="M640 31 458 79l33 121 149-39Z" fill="#557d98"/><path d="m458 79-108 78 43 54 103-30Z" fill="#d8aa80"/>
  <path d="M244 148c17-15 34-17 56-7l44 20-22 38-47-18-41-2c-28-2-41-17-29-31 10-12 21-12 39 0Z" fill="#b87958"/>
  <path d="M397 145c-18-14-35-16-56-6l-43 22 23 37 46-20 41-3c27-4 40-18 27-32-10-11-22-11-38 2Z" fill="#d8aa80"/>
  <g transform="translate(241 118) rotate(-3)"><rect x="0" y="0" width="160" height="36" rx="18" fill="#e8bf45" stroke="#8e7117" stroke-width="3"/><rect x="9" y="8" width="28" height="20" rx="10" fill="#f7dc79" opacity=".65"/><text x="80" y="23" text-anchor="middle" font-family="Arial,sans-serif" font-weight="800" font-size="14" letter-spacing="2" fill="#5f4a0f">1 NIM</text></g>
  <g fill="#df654d"><path d="M296 78h8v24h-8z"/><path d="m277 91 6-6 17 17-6 6z"/><path d="m325 85 6 6-17 17-6-6z"/></g>
  <text x="320" y="229" text-anchor="middle" font-family="Georgia,serif" font-size="19" font-weight="700" fill="#342f27">A human handoff. One verified baton.</text>
  <text x="320" y="248" text-anchor="middle" font-family="Arial,sans-serif" font-size="11" fill="#6f685d">Accept first · authorize exactly 1 NIM · custody moves only after FINAL</text>
</svg>