<svg xmlns="http://www.w3.org/2000/svg" viewBox="0 0 1200 630" role="img" aria-labelledby="title desc">
  <title id="title">NimCarry — A private introduction, carried by people.</title>
  <desc id="desc">A private introduction carried by consenting people, one verified handoff at a time.</desc>
  <defs><filter id="shadow" x="-30%" y="-30%" width="160%" height="160%"><feDropShadow dx="0" dy="8" stdDeviation="10" flood-color="#302419" flood-opacity=".18"/></filter></defs>
  <rect width="1200" height="630" fill="#183f36"/>
  <path d="M0 488c213-69 367-44 548-91 219-57 397-149 652-107v340H0Z" fill="#d6d5be" opacity=".92"/>
  <g filter="url(#shadow)"><path d="M58 58 620 72 602 486 42 470Z" fill="#fff8eb"/><text x="92" y="126" font-family="Iowan Old Style,Georgia,serif" font-size="52" font-weight="700" fill="#211e1a">NimCarry</text><text x="92" y="206" font-family="Iowan Old Style,Georgia,serif" font-size="66" font-weight="700" letter-spacing="-3" fill="#183f36">A private introduction.</text><text x="92" y="278" font-family="Iowan Old Style,Georgia,serif" font-size="66" font-weight="700" letter-spacing="-3" fill="#183f36">Carried by people.</text><text x="92" y="342" font-family="Arial,sans-serif" font-size="24" fill="#655a4d">One destination. Explicit consent. One NIM custody seal.</text><text x="92" y="382" font-family="Arial,sans-serif" font-size="24" fill="#655a4d">Only independently verified FINAL moves the letter.</text><rect x="92" y="420" width="210" height="46" rx="8" fill="#183f36"/><text x="197" y="450" text-anchor="middle" font-family="Arial,sans-serif" font-size="18" font-weight="800" fill="#fff8eb">OPEN WITH NIMIQ PAY</text></g>
  <g transform="translate(670 75)" filter="url(#shadow)"><path d="M0 0 430 20 414 347-18 329Z" fill="#f4e7d3"/><path d="M18 235c92-47 178-26 245-69 55-35 101-41 153-29v192H18Z" fill="#a8c2c6"/><path d="M19 273c104-40 200-20 397-92v148H19Z" fill="#c3b37e"/><path d="M58 252c91-58 164-35 248-74 48-22 83-40 128-70" fill="none" stroke="#d96348" stroke-width="8" stroke-linecap="round" stroke-dasharray="13 15"/><g transform="translate(58 197)"><circle cx="26" cy="21" r="17" fill="#bd8565"/><path d="M5 76c3-35 10-46 21-46s19 11 23 46Z" fill="#6f4f72"/></g><g transform="translate(192 170)"><circle cx="26" cy="21" r="17" fill="#d0a17c"/><path d="M5 76c3-35 10-46 21-46s19 11 23 46Z" fill="#a95e47"/></g><g transform="translate(316 128)"><circle cx="26" cy="21" r="17" fill="#875942"/><path d="M5 76c3-35 10-46 21-46s19 11 23 46Z" fill="#49756e"/></g><g transform="translate(330 48)"><path d="M0 35C0 16 16 0 35 0s35 16 35 35c0 25-35 63-35 63S0 60 0 35Z" fill="#a94f37"/><circle cx="35" cy="35" r="12" fill="#fff8eb"/></g><g transform="translate(135 218) rotate(-6)"><rect width="104" height="28" rx="14" fill="#c4933f"/><text x="52" y="18" text-anchor="middle" font-family="Arial,sans-serif" font-size="11" font-weight="900" fill="#4e3b0d">1 NIM</text></g><text x="34" y="52" font-family="Bradley Hand,Segoe Print,cursive" font-size="22" fill="#594b3d">A letter carried hand-to-hand.</text></g>
  <g transform="translate(72 520)"><path d="M0 0c30-3 50 9 58 34-22 14-44 13-64-3 0-13 2-23 6-31Z" fill="#183f36"/><path d="M55 13c25-7 46 0 60 22-10 27-29 43-55 49-21-12-29-31-24-54 4-8 10-13 19-17Z" fill="#c4933f"/><path d="M7 38c3-23 17-38 40-45 18 15 23 33 13 55-17 11-35 8-53-10Z" fill="#a94f37"/></g>
  <text x="1000" y="574" text-anchor="end" font-family="Arial,sans-serif" font-size="18" font-weight="800" letter-spacing="1" fill="#183f36">REAL PEOPLE · ONE DESTINATION · FINAL ONLY</text>
</svg>
